HIERARCHY
ROOT hip
{
	OFFSET 0.000000 0.000000 0.000000 
	CHANNELS 6 Xposition Yposition Zposition Xrotation Zrotation Yrotation
	JOINT abdomen
	{
		OFFSET 0.000000 3.402643 0.000000 
		CHANNELS 3 Xrotation Zrotation Yrotation
		JOINT chest
		{
			OFFSET 0.000000 8.438565 -0.680529 
			CHANNELS 3 Xrotation Zrotation Yrotation
			JOINT neck
			{
				OFFSET 0.000000 10.207942 -0.272212 
				CHANNELS 3 Xrotation Zrotation Yrotation
				JOINT head
				{
					OFFSET 0.000000 3.130431 0.000000 
					CHANNELS 3 Xrotation Zrotation Yrotation
					End Site
					{
						OFFSET 0.000000 3.130435 0.000000 
					}
				}
			}
			JOINT lCollar
			{
				OFFSET 3.470700 6.669187 -0.816635 
				CHANNELS 3 Yrotation Zrotation Xrotation
				JOINT lShldr
				{
					OFFSET 3.198488 0.000000 0.000000 
					CHANNELS 3 Zrotation Yrotation Xrotation
					JOINT lForeArm
					{
						OFFSET 10.139888 0.000000 0.000000 
						CHANNELS 3 Yrotation Zrotation Xrotation
						JOINT lHand
						{
							OFFSET 8.370511 0.000000 0.000000 
							CHANNELS 3 Zrotation Yrotation Xrotation
							End Site
							{
								OFFSET 4.083176 0.000000 0.000000 
							}
						}
					}
				}
			}
			JOINT rCollar
			{
				OFFSET -3.470700 6.669187 -0.816635 
				CHANNELS 3 Yrotation Zrotation Xrotation
				JOINT rShldr
				{
					OFFSET -3.198488 0.000000 0.000000 
					CHANNELS 3 Zrotation Yrotation Xrotation
					JOINT rForeArm
					{
						OFFSET -10.139888 0.000000 0.000000 
						CHANNELS 3 Yrotation Zrotation Xrotation
						JOINT rHand
						{
							OFFSET -8.370511 0.000000 0.000000 
							CHANNELS 3 Zrotation Yrotation Xrotation
							End Site
							{
								OFFSET -4.083176 0.000000 0.000000 
							}
						}
					}
				}
			}
		}
	}
	JOINT lThigh
	{
		OFFSET 5.308129 -1.633274 1.361059 
		CHANNELS 3 Xrotation Zrotation Yrotation
		JOINT lShin
		{
			OFFSET -2.041588 -20.007561 0.000000 
			CHANNELS 3 Xrotation Zrotation Yrotation
			JOINT lFoot
			{
				OFFSET 0.000000 -19.190928 -1.224953 
				CHANNELS 3 Xrotation Yrotation Zrotation
				End Site
				{
					OFFSET 0.000000 -2.449906 4.627600 
				}
			}
		}
	}
	JOINT rThigh
	{
		OFFSET -5.308129 -1.633274 1.361059 
		CHANNELS 3 Xrotation Zrotation Yrotation
		JOINT rShin
		{
			OFFSET 2.041588 -20.007561 0.000000 
			CHANNELS 3 Xrotation Zrotation Yrotation
			JOINT rFoot
			{
				OFFSET 0.000000 -19.190928 -1.224953 
				CHANNELS 3 Xrotation Yrotation Zrotation
				End Site
				{
					OFFSET 0.000000 -2.449906 4.627600 
				}
			}
		}
	}
}
MOTION
Frames: 13
Frame Time: 0.033333
7.346929 49.036022 -2.241904 0.390656 -0.722640 -5.376143 0.000000 0.000000 0.000000 4.620580 11.272782 1.062998 -25.347252 5.783150 -4.873336 26.238218 -2.512974 -0.232212 -3.519355 9.157742 6.311733 -74.725952 5.250857 -38.404102 -67.763687 0.748984 -0.688291 -8.912419 -13.859070 -4.820019 3.090466 -14.082293 8.028685 79.544106 1.723404 -12.620058 11.042060 -6.002175 55.370876 -2.849398 10.137296 -7.923300 -0.175898 3.059947 6.006696 13.152821 -2.364515 -12.148893 -11.226364 -0.235060 2.346067 -2.136899 -4.193696 -10.531709 12.925001 1.074946 14.531769 -8.990862 0.555612 -4.829712 
7.530842 49.082401 -2.259979 0.918042 -0.722564 -6.447248 0.000000 0.000000 0.000000 5.063520 11.538047 0.635445 -25.629812 6.253842 -4.388591 27.008844 -3.530870 0.466427 -3.519355 9.157742 6.311733 -80.479012 -3.261131 -31.137159 -44.528770 15.250388 8.063165 -11.028767 -9.470461 -5.026357 3.090466 -14.082293 8.028685 80.929253 3.326485 -14.508556 11.359449 -6.551209 55.668808 -2.317967 8.979175 -7.885541 -0.292777 2.906313 6.031772 12.352211 -2.560970 -11.311584 -10.937410 -0.192956 2.148371 -2.887735 -4.621969 -10.866388 13.045313 1.406408 16.359631 -7.806258 0.467883 -4.577642 
7.712863 49.027035 -2.306346 1.201231 -0.566282 -7.023688 0.000000 0.000000 0.000000 5.740432 9.921699 0.816834 -26.052200 6.938103 -4.757017 27.452129 -4.825623 0.590640 -3.519355 9.157742 6.311733 -85.623093 -10.422870 -26.615566 -27.076672 25.412350 9.739551 -14.154788 -4.513973 -5.365461 3.090466 -14.082293 8.028685 83.307793 4.276709 -15.960028 11.383908 -6.750286 54.741955 -1.992587 8.018939 -7.869902 -0.976060 2.459346 5.681956 13.074919 -2.375402 -10.402105 -11.319222 -0.190006 2.130263 -3.495413 -4.978882 -10.905324 13.414033 1.348403 16.955956 -8.234921 0.520959 -4.858490 
7.743427 49.007637 -2.227330 0.449314 -1.181604 -6.835636 0.000000 0.000000 0.000000 8.222718 6.824324 0.330592 -26.307222 7.419276 -5.435433 27.772053 -5.342670 0.343249 -3.519355 9.157742 6.311733 -88.125031 -10.689355 -25.667109 -23.335033 23.647909 11.646647 -16.008984 1.754796 -6.331507 3.090466 -14.082293 8.028685 86.528709 5.640465 -15.278860 10.539699 -5.967371 54.082424 -2.530642 6.907224 -8.007299 -0.165753 2.854556 5.865744 13.312469 -2.219624 -10.508214 -11.923948 -0.255319 2.568423 -2.459975 -4.284529 -10.427665 13.071140 1.075233 16.155283 -8.384262 0.519104 -4.839684 
7.712152 49.027985 -2.135019 -0.351771 -1.972619 -6.452743 0.000000 0.000000 0.000000 11.373392 3.829773 -1.114781 -26.790274 8.001888 -5.982809 28.713570 -5.605415 0.236199 -3.519355 9.157742 6.311733 -89.246742 -8.610908 -26.619253 -22.772196 18.810396 12.005600 -16.673807 8.288924 -7.675148 3.090466 -14.082293 8.028685 89.487785 7.782735 -13.203956 9.233283 -4.598079 55.516960 -2.212129 5.640303 -8.019777 0.741442 3.671788 6.455440 13.566746 -2.306441 -11.495045 -12.275586 -0.317422 2.931187 -0.936524 -3.412617 -10.037225 11.974564 1.056183 15.227917 -8.002797 0.488933 -4.623819 
7.833136 49.026085 -2.248338 0.117245 -1.787106 -6.771537 0.000000 0.000000 0.000000 12.356277 1.201974 -1.689690 -27.762033 8.676980 -6.455399 30.252127 -5.775914 0.270995 -3.519355 9.157742 6.311733 -90.627190 -6.136762 -28.153652 -23.007593 13.199912 12.771236 -16.605618 12.036946 -8.483654 3.090466 -14.082293 8.028685 91.476822 9.341841 -11.390329 8.023911 -3.347162 58.528397 -0.987424 5.261046 -7.847550 0.038926 3.428852 6.326939 13.747989 -2.384127 -11.016236 -12.204168 -0.304222 2.730581 -1.570963 -3.744508 -10.205915 11.911770 1.191687 15.742814 -7.805364 0.467541 -4.588452 
7.952796 49.020405 -2.343725 0.547063 -1.503838 -7.280235 0.000000 0.000000 0.000000 12.080298 -0.343777 -1.362695 -28.315722 9.145009 -7.042233 31.303368 -5.778295 0.087899 -3.519355 9.157742 6.311733 -92.291664 -4.021439 -28.535742 -21.314072 9.048362 15.541754 -14.410615 9.720644 -8.047170 3.090466 -14.082293 8.028685 92.908936 9.852744 -10.444631 6.975132 -2.476440 61.059479 0.293134 4.771883 -7.699924 -0.380085 2.969831 6.000191 13.397555 -2.326943 -10.133362 -12.129322 -0.285159 2.609093 -2.323943 -4.227079 -10.460365 12.191730 1.299842 16.641359 -7.685286 0.468215 -4.608285 
8.025518 49.020885 -2.366719 0.537280 -1.445249 -7.611450 0.000000 0.000000 0.000000 11.270795 -0.852381 -0.863350 -28.190189 9.322947 -7.463432 31.383728 -5.585514 -0.153439 -3.519355 9.157742 6.311733 -94.294243 -2.273945 -27.900488 -19.037092 6.828621 17.474180 -14.076113 7.735635 -7.663567 3.090466 -14.082293 8.028685 94.026016 9.583199 -10.176538 6.026970 -1.973347 62.778728 0.194031 3.948944 -7.765427 -0.322104 2.720749 5.775693 13.193254 -2.209619 -9.613886 -12.140478 -0.277357 2.558706 -2.419993 -4.369421 -10.508991 12.251360 1.299687 16.946096 -7.780926 0.480847 -4.667894 
8.064599 49.015675 -2.463951 0.957319 -1.406054 -7.845992 0.000000 0.000000 0.000000 9.688138 -0.654593 -0.414588 -27.789680 9.077900 -7.574199 31.262678 -4.994761 -0.422056 -3.519355 9.157742 6.311733 -96.906433 -0.895378 -28.214510 -17.945601 6.241347 18.989254 -13.680838 10.050072 -8.092956 3.090466 -14.082293 8.028685 94.745621 8.879093 -10.308935 5.626399 -1.946033 64.737030 -0.211330 4.167623 -7.798751 -0.693246 2.615561 5.619082 12.860692 -2.121719 -9.265730 -12.243396 -0.305877 2.729979 -3.151257 -4.388147 -10.441433 12.555315 1.250607 17.043619 -7.764298 0.473547 -4.617403 
8.084285 49.019936 -2.507528 0.830349 -1.464690 -7.707016 0.000000 0.000000 0.000000 8.935578 -0.154354 -0.112186 -27.404959 8.656390 -7.717375 31.117344 -4.476155 -0.808340 -3.519355 9.157742 6.311733 -99.413948 0.085219 -28.718298 -17.559660 6.199114 20.179363 -12.033619 9.759027 -8.100503 3.090466 -14.082293 8.028685 95.196671 8.269375 -9.961985 5.535933 -1.905054 63.591187 0.566363 3.755217 -7.721507 -0.751753 2.655285 5.633944 13.136889 -2.102108 -9.367175 -12.216589 -0.291495 2.639173 -2.987465 -4.412268 -10.536333 12.462264 1.349265 16.999043 -7.639458 0.478495 -4.581563 
8.122326 49.032238 -2.526690 0.439593 -1.445270 -7.433206 0.000000 0.000000 0.000000 9.091803 0.057858 -0.010263 -27.181810 8.247388 -7.892661 30.845106 -4.231547 -1.211104 -3.519355 9.157742 6.311733 -100.881310 0.464547 -28.111067 -17.040472 5.934105 20.504406 -11.717712 7.978570 -7.797110 3.090466 -14.082293 8.028685 95.640533 8.065486 -9.178067 5.375868 -1.678993 61.466545 -0.149549 3.111092 -7.865582 -0.604528 2.593157 5.633249 13.491209 -2.131500 -9.594109 -11.979888 -0.234490 2.329149 -2.528478 -4.548110 -10.677467 12.299567 1.417019 17.026402 -7.396915 0.457909 -4.491848 
8.150902 49.038387 -2.590566 0.400513 -1.415981 -7.060916 0.000000 0.000000 0.000000 9.267584 0.067467 -0.301480 -27.099314 7.981112 -8.126738 30.615982 -4.102484 -1.559660 -3.519355 9.157742 6.311733 -101.472351 0.384876 -27.045605 -16.504984 5.665634 21.363968 -11.560409 7.980995 -7.808036 3.090466 -14.082293 8.028685 95.923912 8.060811 -8.711295 5.350214 -1.513667 61.991840 -1.018116 3.471393 -7.958035 -0.613390 2.549976 5.621168 13.350645 -2.151180 -9.899954 -11.882007 -0.226677 2.321604 -2.595863 -4.575218 -10.680358 12.384351 1.329753 16.691793 -7.321668 0.434581 -4.405316 
8.177778 49.040283 -2.660071 0.459104 -1.308552 -6.573205 0.000000 0.000000 0.000000 9.628929 -0.125165 -0.714616 -26.994421 7.515149 -8.196635 30.220930 -3.614095 -1.890162 -3.519355 9.157742 6.311733 -101.302147 -0.042265 -25.852810 -15.879362 5.352428 21.819641 -12.202977 6.272886 -7.479295 3.090466 -14.082293 8.028685 96.200378 8.192924 -8.824675 5.612978 -1.672534 62.927494 -0.597403 3.905761 -7.875279 -0.759927 2.415075 5.472692 13.214726 -2.121851 -10.269486 -11.810979 -0.265747 2.453735 -2.763075 -4.695529 -10.729393 12.527338 1.289415 16.246986 -7.480746 0.445955 -4.412542 
